<?xml version="1.0" encoding="UTF-8"?>
<!DOCTYPE svg PUBLIC "-//W3C//DTD SVG 1.1//EN" "http://www.w3.org/Graphics/SVG/1.1/DTD/svg11.dtd">
<svg xmlns="http://www.w3.org/2000/svg" version="1.1" width="512px" height="512px" style="shape-rendering:geometricPrecision; text-rendering:geometricPrecision; image-rendering:optimizeQuality; fill-rule:evenodd; clip-rule:evenodd" xmlns:xlink="http://www.w3.org/1999/xlink">
<g><path style="opacity:0.984" fill="#000000" d="M 141.5,-0.5 C 195.833,-0.5 250.167,-0.5 304.5,-0.5C 367.528,9.69126 409.361,45.0246 430,105.5C 445.164,166.661 429.664,218.495 383.5,261C 374.167,267 364.833,267 355.5,261C 348.383,252.821 347.216,243.988 352,234.5C 363.885,224.058 373.885,212.058 382,198.5C 397.121,167.774 398.455,136.44 386,104.5C 368.892,68.6885 340.725,47.5218 301.5,41C 252.517,39.3981 203.517,39.0648 154.5,40C 134.187,41.4013 121.353,51.9013 116,71.5C 114.53,132.808 114.03,194.142 114.5,255.5C 170.168,255.333 225.834,255.5 281.5,256C 284.446,256.806 287.112,258.139 289.5,260C 338.955,334.406 387.789,409.24 436,484.5C 438.786,496.92 434.619,505.92 423.5,511.5C 419.167,511.5 414.833,511.5 410.5,511.5C 407.009,510.163 403.843,508.163 401,505.5C 355.5,435.833 310,366.167 264.5,296.5C 214.504,295.5 164.504,295.167 114.5,295.5C 114.667,363.167 114.5,430.834 114,498.5C 111.647,504.685 107.48,509.018 101.5,511.5C 96.8333,511.5 92.1667,511.5 87.5,511.5C 81.5198,509.018 77.3531,504.685 75,498.5C 74.3333,354.5 74.3333,210.5 75,66.5C 82.6801,29.6536 104.847,7.32024 141.5,-0.5 Z"/></g>
</svg>
